<svg width="800" height="800" viewBox="0 0 800 800" fill="none" xmlns="http://www.w3.org/2000/svg">
<path d="M768 0H32C14.3 0 0 14.3 0 32V768C0 785.7 14.3 800 32 800H768C785.7 800 800 785.7 800 768V32C800 14.3 785.7 0 768 0ZM656 205.7L615.2 244.8C611.6 247.5 609.9 251.9 610.6 256.2V543.9C609.9 548.3 611.6 552.7 615.2 555.3L655.2 594.4V603.1H454.4V594.8L495.7 554.7C499.8 550.6 499.8 549.4 499.8 543.3V310.5L384.8 602.1H369.3L235.5 310.5V506C234.3 514.2 237.2 522.5 243 528.4L296.8 593.5V602.2H144V593.5L197.8 528.4C200.635 525.472 202.744 521.921 203.96 518.031C205.175 514.141 205.463 510.021 204.8 506V280C205.5 273.7 203.1 267.6 198.3 263.3L150.5 205.7V197H299L413.6 448.5L514.5 197.2H656V205.7Z" fill="currentColor"/>
</svg>
