<svg width="144" height="48" viewBox="0 0 144 48" fill="none" xmlns="http://www.w3.org/2000/svg">
<g clip-path="url(#clip0_3165_332)">
<mask id="mask0_3165_332" style="mask-type:luminance" maskUnits="userSpaceOnUse" x="0" y="0" width="144" height="48">
<path d="M144 0H0V48H144V0Z" fill="white"/>
</mask>
<g mask="url(#mask0_3165_332)">
<path d="M56.8535 34.5279V32.4479H66.7415C67.6801 32.4479 68.1495 31.9892 68.1495 31.0719V28.6399C68.1495 27.8292 67.7868 27.3492 67.0615 27.1999L60.5655 25.8879C58.0908 25.3972 56.8535 23.7332 56.8535 20.8959V19.1359C56.8535 15.6586 58.5921 13.9199 62.0695 13.9199H69.5255L71.4135 15.3919V17.4719H62.1655C61.2268 17.4719 60.7575 17.9306 60.7575 18.8479V20.9919C60.7575 21.8026 61.1201 22.2826 61.8455 22.4319L68.3415 23.7119C70.8161 24.2239 72.0535 25.8879 72.0535 28.7039V30.7839C72.0535 34.2612 70.3148 35.9999 66.8375 35.9999H58.7415L56.8535 34.5279ZM74.4202 35.2319L81.2362 13.9199H87.3162L94.1002 35.2319L93.6202 35.9999H90.3242L88.8202 31.1359H79.7002L78.1642 35.9999H74.9322L74.4202 35.2319ZM80.7882 27.5839H87.7642L84.5642 17.4719H83.9562L80.7882 27.5839ZM97.4385 35.9999V13.9199H102.239L108.863 28.0639L115.487 13.9199H120.287V35.9999H116.351V20.5759L110.527 32.9919H107.167L101.343 20.5759V35.9999H97.4385ZM123.608 35.2319L130.424 13.9199H136.504L143.288 35.2319L142.808 35.9999H139.512L138.008 31.1359H128.888L127.352 35.9999H124.12L123.608 35.2319ZM129.976 27.5839H136.952L133.752 17.4719H133.144L129.976 27.5839Z" fill="black"/>
<mask id="mask1_3165_332" style="mask-type:luminance" maskUnits="userSpaceOnUse" x="0" y="0" width="47" height="48">
<path d="M47 0H0V48H47V0Z" fill="white"/>
</mask>
<g mask="url(#mask1_3165_332)">
<path d="M46.9999 23.4666C46.9999 22.0986 46.8913 20.7576 46.6839 19.4528C46.6833 19.4461 46.6833 19.4387 46.6821 19.4319C46.6789 19.4129 46.6752 19.3938 46.6721 19.3747C46.4985 18.303 46.2587 17.2566 45.9558 16.2402C45.829 15.8 45.6929 15.3616 45.5443 14.9269C44.6881 12.4207 43.386 10.155 41.7374 8.07798C39.0352 4.67352 35.658 2.18643 31.4759 0.801773C31.1705 0.700936 30.8639 0.611167 30.5547 0.531851C29.4987 0.196754 28.2179 0 26.8372 0C26.134 0 25.4571 0.0510331 24.822 0.145721C24.2337 0.204747 23.6523 0.313577 23.0778 0.458683C21.6202 0.826367 20.2357 1.34899 19.0636 2.3217C18.6552 2.66048 18.3486 3.08842 17.9751 3.45611C17.2501 4.17057 16.3521 4.65877 15.5371 5.25641C15.1749 5.52141 14.8058 5.78088 14.5042 6.10737C14.0971 6.41295 13.8398 6.85934 13.8398 7.35614C13.8398 7.61192 13.9078 7.85418 14.0296 8.07122C14.1551 8.32946 14.3625 8.54589 14.5598 8.77769C14.4362 8.80474 14.3568 8.81827 14.2769 8.82995C14.2276 8.84041 14.1907 8.84594 14.1639 8.85209C13.7736 8.94124 13.4869 8.98428 13.0954 9.06667C13.0417 9.07774 13.0254 9.08143 12.9205 9.11033C12.8943 9.11709 12.8699 9.12385 12.8506 9.12877C9.015 10.1236 5.84573 12.1403 3.53639 15.3142C1.34944 18.3209 0.265336 21.7456 0.0392721 25.4378C-0.0962412 27.6501 0.115459 29.8199 0.728704 31.9547C1.69041 35.3051 3.26099 38.3191 5.71147 40.8621C8.54538 43.803 11.9751 45.7834 15.8781 46.9972C17.6279 47.5413 19.4395 47.778 21.263 47.9127C21.6352 47.9404 22.008 47.96 22.3809 47.9705C23.5093 48.0387 24.7957 47.9889 26.1477 47.8014C27.2231 47.6526 28.2342 47.4313 29.139 47.1601C29.5624 47.0445 29.9815 46.9129 30.3955 46.7666C37.3647 44.2955 42.3157 39.7136 45.1877 32.9821C45.9208 31.263 46.4354 29.4781 46.6802 27.6237C46.6752 27.6126 46.6708 27.6021 46.6665 27.5917C46.8057 26.7401 46.9025 25.8725 46.9543 24.9915C46.9912 24.5979 47.0037 24.2044 46.9968 23.8097C46.9981 23.6953 46.9999 23.581 46.9999 23.4666ZM23.4468 5.54969C23.2283 5.62409 22.9779 5.65852 22.6819 5.6536C22.3022 5.6536 22.0193 5.48452 21.8544 5.0781C21.8307 5.01907 21.8126 4.95943 21.7988 4.89856C22.2647 5.15557 22.8217 5.37569 23.4468 5.54969ZM41.0561 23.3602C40.9393 25.5743 40.5821 27.7399 39.5885 29.7609C39.2238 30.5018 38.8585 31.2421 38.4901 31.9811C38.4439 31.9436 38.4008 31.9387 38.3683 31.9953C38.0248 32.5855 37.8625 32.9858 37.4915 33.533C37.4572 33.5792 37.4172 33.632 37.3729 33.6911C36.6822 34.6054 36.1295 35.302 36.0508 35.3997C34.2261 37.6698 31.9686 38.8196 31.9686 38.8196C30.5266 39.6816 28.9479 40.3254 27.2325 40.7508C27.1938 40.7607 27.1575 40.7816 27.1207 40.7976C27.1819 40.9156 27.072 40.872 27.0333 40.8812C25.7974 41.1763 24.5647 41.4751 23.2882 41.5643C22.5857 41.6135 21.885 41.6934 21.18 41.6719C19.5295 41.6215 17.9045 41.4063 16.3171 40.9421C14.3281 40.3604 12.489 39.483 10.8454 38.2312C9.32599 37.074 8.09451 35.6654 7.14466 34.0206C6.24041 32.4552 5.75394 30.7545 5.48728 28.9862C5.42233 28.5539 5.39423 28.1155 5.35177 27.6802C5.3449 27.6107 5.33553 27.5351 5.4036 27.4822C5.29869 26.8047 5.17816 26.1289 5.14881 25.4421C5.15193 24.8771 5.15193 24.9583 5.15193 24.8771C5.15193 24.2887 5.13507 24.2044 5.1357 23.616C5.1357 23.5355 5.13195 23.4642 5.14569 23.3037C5.32741 20.7748 6.01684 18.3928 7.4338 16.2666C9.28665 13.4856 11.6691 11.2629 14.7628 9.84016C14.867 9.7922 14.9651 9.75162 15.1019 9.68768C15.1893 9.64956 15.1674 9.66124 15.2492 9.62558C15.288 9.60898 15.2936 9.6059 15.3323 9.58684C15.3591 9.56963 15.3516 9.57577 15.3748 9.55548C15.4285 9.50814 15.4178 9.51859 15.4653 9.46817L15.4672 9.46694C15.4771 9.45711 15.4865 9.44727 15.4959 9.43805C15.5159 9.41837 15.5228 9.38947 15.514 9.36303C15.4747 9.24498 15.4466 9.22408 15.178 9.02548C15.6039 9.11709 15.9412 9.20748 16.2896 9.24191C16.8592 9.29847 17.4243 9.27818 17.9945 9.24744C18.8032 9.2044 19.615 9.16444 20.4212 9.35934C19.9572 9.45526 19.492 9.54811 19.0292 9.64956C18.895 9.67907 18.7651 9.72518 18.6389 9.77991C18.529 9.82787 18.3816 9.86414 18.3985 10.0228C18.4154 10.182 18.5671 10.1667 18.682 10.206C18.8544 10.265 18.4485 10.2976 18.8519 10.3302C19.3178 10.3671 19.9947 10.396 20.3856 10.3726C22.4908 10.2435 24.4929 9.70612 26.4169 8.86992C26.4537 8.85393 26.4856 8.84287 26.5199 8.82196C26.6067 8.77339 26.5618 8.79983 26.6598 8.75064C26.8409 8.67501 26.8109 8.6787 27.0189 8.60922C27.6752 8.16468 28.2804 7.66111 28.8767 7.13848C29.5799 6.52178 30.4567 6.53223 31.326 6.73514C32.2871 6.95956 33.0839 7.50063 33.8633 8.06569C36.2257 9.77806 37.9443 12.0032 39.1708 14.6047C39.9957 16.3533 40.5471 18.1868 40.8238 20.1015C40.9799 21.1849 41.1148 22.2689 41.0567 23.3627L41.0561 23.3602Z" fill="#7277D4"/>
<path d="M27.0192 8.60742L27.0166 8.6091L27.0192 8.60742Z" fill="#7277D4"/>
<path d="M15.528 9.40741V9.40356L15.5273 9.40484L15.528 9.40741Z" fill="#7277D4"/>
<path d="M38.1378 32.4103C38.2696 32.1638 38.2589 32.1884 38.2927 32.1287C39.3274 30.1372 39.9775 28.035 40.1948 25.8061C40.6076 21.5692 39.7402 17.631 37.2623 14.1079C35.3932 11.4505 32.9296 9.53212 29.746 8.58524C29.0415 8.37558 28.3321 8.27228 27.6008 8.42723C27.4004 8.46965 27.2393 8.50224 27.0176 8.60861C27.6745 8.16345 28.2803 7.65989 28.8767 7.13664C29.5798 6.51994 30.4566 6.53039 31.3259 6.7333C32.287 6.95772 33.0838 7.49879 33.8632 8.06385C36.2256 9.77622 37.9442 12.0014 39.1707 14.6028C39.9956 16.3515 40.547 18.185 40.8237 20.0997C40.9798 21.183 41.1147 22.267 41.0566 23.3609C40.9398 25.575 40.5826 27.7405 39.5891 29.7615C39.21 30.5319 38.8303 31.3023 38.4469 32.0703C38.3988 32.1668 38.2689 32.3728 38.1378 32.4103Z" fill="#5157AE"/>
<path d="M5.40263 27.4817C6.70219 33.5922 10.4204 37.6926 16.2056 40.0715C16.8638 40.3421 17.552 40.5284 18.2377 40.7214C19.1176 40.9692 20.0181 41.1291 20.9211 41.2262C21.8534 41.3265 22.797 41.2939 23.7381 41.2785C24.8928 41.26 25.9969 40.9827 27.1204 40.7977C27.1816 40.9157 27.071 40.8721 27.0329 40.8813C25.7971 41.1764 24.5643 41.4752 23.2879 41.5644C22.5853 41.6136 21.8847 41.6935 21.1796 41.672C19.5291 41.6216 17.9042 41.4064 16.3168 40.9422C14.3278 40.3605 12.4887 39.4831 10.845 38.2313C9.32565 37.0741 8.09416 35.6655 7.14432 34.0207C6.24007 32.4553 5.75359 30.7546 5.48694 28.9863C5.42199 28.554 5.39389 28.1156 5.35143 27.6797C5.34456 27.6102 5.33456 27.5346 5.40263 27.4817Z" fill="#5157AE"/>
<path d="M22.6823 5.65356C22.3027 5.65356 22.0198 5.48448 21.8549 5.07806C21.6813 4.65012 21.7781 4.15946 22.1509 3.84773C22.5843 3.48558 23.072 3.25255 23.6678 3.45238C24.3672 3.68664 24.6008 4.55112 24.113 5.10142C23.7689 5.48878 23.3336 5.66339 22.6823 5.65356Z" fill="#5157AE"/>
<path d="M23.0192 38.5196C30.731 38.5196 36.9826 32.3643 36.9826 24.7714C36.9826 17.1785 30.731 11.0232 23.0192 11.0232C15.3073 11.0232 9.05566 17.1785 9.05566 24.7714C9.05566 32.3643 15.3073 38.5196 23.0192 38.5196Z" fill="#7277D4"/>
<path d="M19.2089 10.3321C18.7493 10.3536 18.3022 10.2676 17.8601 10.1606C17.6377 10.1071 17.4504 10.1372 17.2449 10.2479C16.603 10.5959 16.0528 11.0515 15.517 11.6073C15.467 10.9101 15.7318 10.4766 16.0147 9.90721C16.0653 9.66926 16.0372 9.55798 15.7918 9.47128C15.6525 9.42271 15.5844 9.42148 15.4677 9.46452C15.4858 9.29789 14.9069 8.96894 14.5615 8.77588C14.9874 8.86749 15.9416 9.20443 16.2901 9.23886C16.8596 9.29543 17.4248 9.27514 17.9949 9.2444C18.8037 9.20136 19.6155 9.16139 20.4217 9.3563C19.9546 9.45284 19.4862 9.54629 19.0203 9.64836C18.8898 9.67726 18.7618 9.72337 18.6394 9.77686C18.5295 9.82482 18.3821 9.8611 18.399 10.0198C18.4158 10.179 18.5676 10.1636 18.6825 10.203C18.8549 10.262 18.7818 10.259 19.2096 10.3309L19.2089 10.3321Z" fill="#5157AE"/>
<path d="M17.1142 7.06299C17.2509 7.07036 17.3833 7.03778 17.4414 7.1669C17.5026 7.30339 17.4495 7.41899 17.344 7.52351C17.2185 7.64771 17.0829 7.7504 16.9193 7.82479C16.7039 7.92317 16.589 7.79958 16.4816 7.65263C16.3654 7.49339 16.4329 7.35812 16.5634 7.25359C16.7282 7.1214 16.9281 7.06852 17.1142 7.06299Z" fill="#5157AE"/>
<path d="M16.2158 32.2344C15.0536 31.8563 14.1031 31.1996 13.4331 30.1777C12.9378 29.4227 12.6575 28.5982 12.6556 27.6937C12.6512 25.717 12.6824 23.7402 12.6462 21.7641C12.6044 19.4645 14.4366 17.1631 16.9783 16.8938C16.9982 16.8919 17.0164 16.8784 17.0357 16.8704C17.2118 16.863 17.3879 16.8501 17.5647 16.8501C19.9552 16.8489 22.3457 16.8434 24.7362 16.852C26.1594 16.8569 27.5833 16.8163 29.0065 16.8802C31.2609 17.2153 32.8614 18.6873 33.3435 20.8787C33.4228 21.239 33.4478 21.606 33.4466 21.9762C33.4428 23.6867 33.3935 25.3991 33.4578 27.1072C33.5477 29.4879 31.9097 31.8563 29.1988 32.2959C28.9496 32.3076 28.7011 32.3291 28.4519 32.3297C25.8104 32.3347 23.1688 32.3365 20.5272 32.339C20.0888 32.5173 19.7822 32.8714 19.4212 33.1512C18.715 33.699 18.0274 34.2696 17.3311 34.8298C17.0157 35.0837 16.7928 35.0529 16.5624 34.7277C16.4993 34.0661 16.5511 33.4027 16.533 32.7405C16.5293 32.5923 16.5674 32.4275 16.4044 32.3261L16.4075 32.3285C16.3675 32.2504 16.2813 32.2633 16.2158 32.2344ZM27.8287 25.6444C28.5799 25.6481 29.1382 25.1138 29.1432 24.3876C29.1482 23.6738 28.5793 23.0817 27.8693 23.0614C27.1468 23.0405 26.511 23.6572 26.5148 24.3747C26.5185 25.0935 27.0849 25.6413 27.8287 25.6444ZM18.1779 25.6444C18.9279 25.6506 19.5087 25.1021 19.5243 24.3735C19.5387 23.7015 18.9217 23.0792 18.2254 23.0632C17.5022 23.0473 16.8983 23.6351 16.8952 24.3587C16.8921 25.0947 17.4348 25.6383 18.1779 25.6444ZM23.0351 25.6456C23.7752 25.6456 24.3353 25.0966 24.3366 24.3717C24.3384 23.6504 23.7283 23.0485 23.012 23.0645C22.3139 23.0805 21.7087 23.6916 21.7112 24.3778C21.7144 25.0744 22.3113 25.6456 23.0351 25.6456Z" fill="#FEFEFE"/>
<path d="M27.8286 25.6443C27.0848 25.6407 26.5184 25.0934 26.5147 24.3747C26.5109 23.6565 27.1466 23.0404 27.8692 23.0613C28.5792 23.0816 29.1481 23.6743 29.1431 24.3876C29.1381 25.1143 28.5798 25.648 27.8286 25.6443Z" fill="#9DA4CA"/>
<path d="M18.1772 25.6438C17.4335 25.6377 16.8914 25.0941 16.8945 24.3581C16.8977 23.6345 17.5015 23.0466 18.2247 23.0626C18.921 23.078 19.538 23.7009 19.5236 24.3729C19.508 25.1021 18.9272 25.65 18.1772 25.6438Z" fill="#9DA4CA"/>
<path d="M23.0352 25.645C22.3114 25.645 21.715 25.0738 21.7119 24.3771C21.7088 23.691 22.3146 23.0798 23.0127 23.0638C23.729 23.0478 24.3385 23.6492 24.3373 24.371C24.3354 25.0959 23.7746 25.6444 23.0352 25.645Z" fill="#9DA4CA"/>
</g>
</g>
</g>
<defs>
<clipPath id="clip0_3165_332">
<rect width="144" height="48" fill="white"/>
</clipPath>
</defs>
</svg>
